:FULLY-SPECIFIED
:FORCE-ALL-JOINTS-BE-3DOF
:DEGREES
421
root 10.0707 16.9147 23.0609 7.04896 -1.09981 -5.44963
lfemur -37.2876 1.53227 -16.3328
ltibia 25.1392 -0 0
lfoot -8.82815 8.85083 0.043778
ltoes -10.4226 0 0
rfemur 10.7156 4.7863 28.5207
rtibia 15.8687 -0 0
rfoot -5.81756 3.36569 0.0932107
rtoes -16.5513 0 0
lowerback -8.11557 2.3268 2.19688
upperback -0.898587 2.77177 3.05986
thorax 3.63405 1.39489 2.32365
lowerneck -19.7018 -5.71599 -12.933
upperneck 22.2485 -7.29801 12.5451
head 11.4914 -2.92648 5.67724
lclavicle -4.37388e-14 2.78299e-15 0
lhumerus -47.4869 -9.9481 94.5069
lradius 25.0849 -0 0
lwrist 3.48648 0 0
lhand -7.55011 -21.5335 0.0184315
lfingers 7.12502 -0 0
lthumb 18.3408 7.61047 0.0148415
rclavicle -4.37388e-14 2.78299e-15 0
rhumerus -34.1065 13.0728 -87.2484
rradius 37.0184 -0 0
rwrist -15.4471 0 0
rhand -29.5595 -25.9446 0.0138689
rfingers 7.12502 -0 0
rthumb -2.892 -55.9042 0.0133664
422
root 10.0938 16.9324 23.2053 6.98926 -1.04727 -5.20381
lfemur -36.7011 1.54577 -16.7282
ltibia 25.1802 -0 0
lfoot -8.95357 8.72181 0.0466031
ltoes -10.087 0 0
rfemur 9.72991 4.65363 28.1049
rtibia 17.4556 -0 0
rfoot -5.91112 2.99752 0.0992315
rtoes -16.6435 0 0
lowerback -8.03566 2.21333 2.03852
upperback -0.920547 2.64026 3.00432
thorax 3.56904 1.32822 2.34032
lowerneck -19.745 -5.66336 -12.8976
upperneck 22.3154 -7.21794 12.4826
head 11.5089 -2.89341 5.66337
lclavicle -4.37388e-14 2.78299e-15 0
lhumerus -46.7998 -10.0365 94.3718
lradius 24.9423 -0 0
lwrist 3.22623 0 0
lhand -7.66522 -21.5927 0.0196208
lfingers 7.12502 -0 0
lthumb 18.2301 7.56096 0.0157991
rclavicle -4.37388e-14 2.78299e-15 0
rhumerus -34.4676 12.9985 -87.2899
rradius 36.9316 -0 0
rwrist -15.357 0 0
rhand -29.5869 -26.1317 0.014764
rfingers 7.12502 -0 0
rthumb -2.91845 -56.0909 0.014229
423
root 10.1169 16.9501 23.3496 6.92979 -0.994476 -4.95805
lfemur -36.1147 1.56332 -17.1234
ltibia 25.2212 -0 0
lfoot -9.079 8.59279 0.0491459
ltoes -9.75146 0 0
rfemur 8.74543 4.51386 27.6916
rtibia 19.0425 -0 0
rfoot -6.00472 2.62933 0.104651
rtoes -16.7356 0 0
lowerback -7.95545 2.10008 1.88001
upperback -0.942377 2.50874 2.94883
thorax 3.504 1.26156 2.35706
lowerneck -19.7881 -5.61069 -12.8621
upperneck 22.3822 -7.1378 12.4203
head 11.5265 -2.86033 5.64951
lclavicle -4.37388e-14 2.78299e-15 0
lhumerus -46.1123 -10.1232 94.2357
lradius 24.7997 -0 0
lwrist 2.96598 0 0
lhand -7.78034 -21.6518 0.0206911
lfingers 7.12502 -0 0
lthumb 18.1193 7.51144 0.016661
rclavicle -4.37388e-14 2.78299e-15 0
rhumerus -34.8286 12.924 -87.3309
rradius 36.8448 -0 0
rwrist -15.2668 0 0
rhand -29.6143 -26.3189 0.0155696
rfingers 7.12502 -0 0
rthumb -2.9449 -56.2777 0.0150054
424
root 10.1401 16.9677 23.4939 6.87055 -0.941425 -4.71235
lfemur -35.5284 1.5849 -17.5184
ltibia 25.2622 -0 0
lfoot -9.20444 8.46377 0.0514061
ltoes -9.4159 0 0
rfemur 7.76219 4.36703 27.2809
rtibia 20.6294 -0 0
rfoot -6.09835 2.26113 0.109469
rtoes -16.8278 0 0
lowerback -7.87492 1.98706 1.72136
upperback -0.964078 2.37719 2.8934
thorax 3.43896 1.19492 2.37388
lowerneck -19.8312 -5.55801 -12.8268
upperneck 22.4489 -7.05759 12.358
head 11.544 -2.82726 5.63566
lclavicle -4.37388e-14 2.78299e-15 0
lhumerus -45.4244 -10.2083 94.0985
lradius 24.6571 -0 0
lwrist 2.70573 0 0
lhand -7.89545 -21.711 0.0216426
lfingers 7.12502 -0 0
lthumb 18.0085 7.46192 0.0174271
rclavicle -4.37388e-14 2.78299e-15 0
rhumerus -35.1894 12.8492 -87.3714
rradius 36.758 -0 0
rwrist -15.1767 0 0
rhand -29.6416 -26.5061 0.0162856
rfingers 7.12502 -0 0
rthumb -2.97136 -56.4645 0.0156955
425
root 10.1632 16.9854 23.6383 6.81153 -0.888122 -4.46671
lfemur -34.9423 1.61053 -17.9132
ltibia 25.3032 -0 0
lfoot -9.32988 8.33474 0.0533839
ltoes -9.08035 0 0
rfemur 6.78021 4.2132 26.8728
rtibia 22.2162 -0 0
rfoot -6.19201 1.89293 0.113685
rtoes -16.92 0 0
lowerback -7.79409 1.87425 1.56255
upperback -0.985649 2.24562 2.83803
thorax 3.37389 1.12831 2.39078
lowerneck -19.8742 -5.50529 -12.7914
upperneck 22.5155 -6.97731 12.2959
head 11.5615 -2.79417 5.62182
lclavicle -4.37388e-14 2.78299e-15 0
lhumerus -44.7361 -10.2918 93.9602
lradius 24.5146 -0 0
lwrist 2.44548 0 0
lhand -8.01057 -21.7702 0.0224751
lfingers 7.12502 -0 0
lthumb 17.8977 7.4124 0.0180975
rclavicle -4.37388e-14 2.78299e-15 0
rhumerus -35.5501 12.7741 -87.4114
rradius 36.6712 -0 0
rwrist -15.0866 0 0
rhand -29.669 -26.6932 0.0169122
rfingers 7.12502 -0 0
rthumb -2.99782 -56.6513 0.0162994
